<svg xmlns="http://www.w3.org/2000/svg" xmlns:xlink="http://www.w3.org/1999/xlink" viewBox="0 0 869.83 993.42"><defs><style>.cls-1{fill:url(#Безымянный_градиент_4);}.cls-2,.cls-5{opacity:0.5;}.cls-2{fill:url(#Безымянный_градиент_4-2);}.cls-3{fill:#54bec9;}.cls-4{fill:#021213;}.cls-5{fill:url(#Безымянный_градиент_4-3);}</style><linearGradient id="Безымянный_градиент_4" x1="218.65" y1="871.3" x2="651.18" y2="122.12" gradientUnits="userSpaceOnUse"><stop offset="0" stop-color="#021213"/><stop offset="1" stop-color="#54bec9"/></linearGradient><linearGradient id="Безымянный_градиент_4-2" x1="544.13" y1="559.86" x2="760.44" y2="185.2" xlink:href="#Безымянный_градиент_4"/><linearGradient id="Безымянный_градиент_4-3" x1="109.39" y1="808.22" x2="325.7" y2="433.55" xlink:href="#Безымянный_градиент_4"/></defs><g id="Слой_1" data-name="Слой 1"><polygon class="cls-1" points="869.83 248.35 652.32 124.2 435.08 0 434.91 0.1 434.74 0 434.74 0.2 0 248.35 434.74 496.51 434.74 496.51 0 248.35 0 745.06 435.08 993.42 869.49 745.06 652.25 620.87 869.83 745.06 869.83 248.35"/><polygon class="cls-2" points="434.74 496.71 434.74 0 869.83 248.35 869.83 745.06 434.74 496.71"/><polygon class="cls-3" points="435.08 496.71 0 248.35 435.08 0 869.49 248.35 435.08 496.71"/><polygon class="cls-4" points="435.08 993.42 0 745.06 435.08 496.71 869.49 745.06 435.08 993.42"/><polygon class="cls-5" points="0 745.06 0 248.35 435.08 496.71 435.08 993.42 0 745.06"/></g></svg>